/* XPM */
static char *kalaunch_xpm[] = {
"32 32 256 3",
"000 c black",
"001 c #010000",
"002 c #030000",
"003 c #070000",
"004 c #0B0000",
"005 c #0E0000",
"006 c #110000",
"007 c #130000",
"008 c #140000",
"009 c #150000",
"010 c #170000",
"011 c #180000",
"012 c #1A0000",
"013 c #1B0000",
"014 c #1C0000",
"015 c #1D0000",
"016 c #1E0000",
"017 c #1F0000",
"018 c Gray9",
"019 c #1A1717",
"020 c #1D1717",
"021 c #1E1717",
"022 c #230000",
"023 c #260000",
"024 c #270000",
"025 c #280000",
"026 c #2A0000",
"027 c #2B0000",
"028 c #2D0000",
"029 c #2F0000",
"030 c #261717",
"031 c #251818",
"032 c #2C1717",
"033 c #310000",
"034 c #320000",
"035 c #330000",
"036 c #340000",
"037 c #390303",
"038 c #3A0000",
"039 c #3F0000",
"040 c #311717",
"041 c #321717",
"042 c #351717",
"043 c #361717",
"044 c #3A1717",
"045 c #3D1717",
"046 c #391B1B",
"047 c #420000",
"048 c #440000",
"049 c #470000",
"050 c #4A0000",
"051 c #4A0101",
"052 c #4C0000",
"053 c #4E0000",
"054 c #401717",
"055 c #411717",
"056 c #441717",
"057 c #4B1717",
"058 c #4C1717",
"059 c #4F1717",
"060 c #520000",
"061 c #540000",
"062 c #590000",
"063 c #5A0000",
"064 c #5C0000",
"065 c #5E0000",
"066 c #5F0000",
"067 c #561717",
"068 c #521818",
"069 c #541C1C",
"070 c #581717",
"071 c #5A1717",
"072 c #5B1717",
"073 c #5A1919",
"074 c #532121",
"075 c #600000",
"076 c #620000",
"077 c #650000",
"078 c #660000",
"079 c #670000",
"080 c #690101",
"081 c #690202",
"082 c #6C0101",
"083 c #6E0202",
"084 c #651717",
"085 c #661717",
"086 c #631919",
"087 c #631B1B",
"088 c #671919",
"089 c #6E1717",
"090 c #6F1717",
"091 c #691E1E",
"092 c #6D1A1A",
"093 c #6E1919",
"094 c #6E1E1E",
"095 c #700101",
"096 c #710303",
"097 c #730202",
"098 c #710404",
"099 c #710606",
"100 c #710707",
"101 c #740303",
"102 c #710909",
"103 c #720909",
"104 c #710E0E",
"105 c #790505",
"106 c #790606",
"107 c #7A0404",
"108 c #7A0606",
"109 c #790808",
"110 c #790A0A",
"111 c #7A0909",
"112 c #790F0F",
"113 c #731717",
"114 c #741717",
"115 c #761717",
"116 c #711A1A",
"117 c #701E1E",
"118 c #7A1212",
"119 c #791414",
"120 c #781717",
"121 c #7A1616",
"122 c #7E1717",
"123 c #781E1E",
"124 c #632222",
"125 c #6B2626",
"126 c #6F2121",
"127 c #6E2323",
"128 c #762222",
"129 c #7C2222",
"130 c #7A3131",
"131 c #7A3737",
"132 c #7A4141",
"133 c #870303",
"134 c #8A0202",
"135 c #811717",
"136 c #851717",
"137 c #811818",
"138 c #861919",
"139 c #881717",
"140 c #8B1717",
"141 c #8D1717",
"142 c #8D1818",
"143 c #8E1A1A",
"144 c #920404",
"145 c #970707",
"146 c #970909",
"147 c #970B0B",
"148 c #970C0C",
"149 c #971515",
"150 c #971616",
"151 c #9C1717",
"152 c #9E1717",
"153 c #9C1919",
"154 c #9D1A1A",
"155 c #9E1919",
"156 c #832323",
"157 c #822B2B",
"158 c #8C2626",
"159 c #8F2B2B",
"160 c #8B3333",
"161 c #942020",
"162 c #972222",
"163 c #952B2B",
"164 c #992020",
"165 c #9A2727",
"166 c #9E2424",
"167 c #973D3D",
"168 c #A30404",
"169 c #AF0707",
"170 c #A01717",
"171 c #A31717",
"172 c #A41717",
"173 c #A71717",
"174 c #A21919",
"175 c #A61A1A",
"176 c #AD1717",
"177 c #A91919",
"178 c #B30909",
"179 c #B30A0A",
"180 c #B30C0C",
"181 c #B30E0E",
"182 c #B31010",
"183 c #B31212",
"184 c #B31313",
"185 c #B31414",
"186 c #B41717",
"187 c #B31818",
"188 c #B31919",
"189 c #B61818",
"190 c #B61919",
"191 c #B81B1B",
"192 c #BC1818",
"193 c #A02323",
"194 c #AC2B2B",
"195 c #AC3333",
"196 c #B32727",
"197 c #B72525",
"198 c #B02929",
"199 c #B32828",
"200 c #BC2727",
"201 c #B23838",
"202 c #A14040",
"203 c #AD4040",
"204 c #AC4444",
"205 c #C11919",
"206 c #C31919",
"207 c #C01E1E",
"208 c #C71B1B",
"209 c #C71E1E",
"210 c #C91A1A",
"211 c #CC1B1B",
"212 c #CE1D1D",
"213 c #D21E1E",
"214 c #C12121",
"215 c #C72020",
"216 c #C02D2D",
"217 c #C72B2B",
"218 c #CB2424",
"219 c #CB2626",
"220 c #CB2B2B",
"221 c #C23D3D",
"222 c #CE3939",
"223 c #D12525",
"224 c #D92323",
"225 c #DB2D2D",
"226 c #D23838",
"227 c #E02727",
"228 c #E12929",
"229 c #E12B2B",
"230 c #E12D2D",
"231 c #E13535",
"232 c #E13939",
"233 c #E13C3C",
"234 c #D24343",
"235 c #DE5757",
"236 c #E14040",
"237 c #E14141",
"238 c #E14343",
"239 c #E14444",
"240 c #E14F4F",
"241 c #E15252",
"242 c #E15454",
"243 c #E15757",
"244 c #E15959",
"245 c #E15C5C",
"246 c #E15F5F",
"247 c #E16565",
"248 c #E16868",
"249 c #E16F6F",
"250 c #E17272",
"251 c #E17676",
"252 c #E17A7A",
"253 c #E17E7E",
"254 c #E18282",
"255 c Gray100",
"255255255255255255255255255255255255255255255255255255255255255255255255255255255255255255255255",
"255000000255255255255255255255255255000000000255255255255255255255255000000000255255255255255255",
"255000000255255255255255255255000000000018023255255255255255255255000000018000000255255255255255",
"255000001255255255255255255000000018018140065255255255255255255000000018018018002005255255255255",
"255000000255255255255255255000018018220178098255255255255255255000018018018018044015255255255255",
"255000000012255255255255000000018244185106255255255255255255000000018018031093084029009255255255",
"255000018004255255255000000018204236147255255255255255255000000018018086222253216089026009255255",
"255000018000255255255000018018246183100255255255255255255000018018166223209214243194071017255255",
"255000018000000255255000018254188109255255255255255255000000018245199147081060050159086027014255",
"255000018018000000000000157239148255255255255255255000000018074243149255255255007021046067047034",
"255000018018018018018042225182100255255255255255255000018018240183102255255255000000018088139052",
"255000018018018018040153169105255255255255255255255000018018217133255255255255255000018126151061",
"255000018018018019135190134255255255255255255255255000018018138049255255255255255000018069172062",
"255000018018018087174189078255255255255255255255255000018018054015255255255255255000018055170063",
"255000018018018158177176063255255255255255255255255000018018018000000000000000000000018058170063",
"255000018018018156155152053255255255255255255255255000018018018018018018018018018018018084171063",
"255000018018018128142139048255255255255255255255255000018018018018018018018018018018018136173063",
"255000018018018127137114038013255255255255255255255000018018018124201235160019018018129175176064",
"255000018018018202164115072025010255255255255255255000018018043254246240219113056073252215186064",
"255000018018041234253197115070022255255255255255255000018018165242232185168053057059245229192066",
"255000018018122218231249238121035009255255255255255000018018242233184110255024013042161237205075",
"255000018058191212208207236241090026008255255255255000018020248230147255255255002018070247206075",
"255000018154179144082079141198195067016255255255255000018068241180099255255255000000030254210075",
"255000018187110255255036035033117092027006255255255000018163232145255255255255255000018250211076",
"255000045162255255255255255005032125085034007255255000018246230107255255255255255000018221213076",
"255000116121255255255255255001000032203120028255255000018253181096255255255255255000000123224076",
"255000143104255255255255255255000000091193039255255000030249146255255255255255255255000057230077",
"255000167255255255255255255255255000044251103037255000094242108255255255255255255255000042239080",
"255000132255255255255255255255255000056200250131255011226196100255255255255255255255000013245097",
"255000130255255255255255255255255003029095228118255038227150255255255255255255255255255025231111",
"255013119255255255255255255255255255255048083101255051101110255255255255255255255255255028106112",
"255255255255255255255255255255255255255255255255255255255255255255255255255255255255255255255255"
};
